<svg width="16" height="163" viewBox="0 0 16 163" fill="none" xmlns="http://www.w3.org/2000/svg">
<path d="M8 73.6923L9 73.6923L8 73.6923ZM8.70711 0.292892C8.31658 -0.0976257 7.68342 -0.0976257 7.29289 0.292892L0.928932 6.65686C0.538408 7.04738 0.538408 7.68054 0.928932 8.07108C1.31946 8.46159 1.95262 8.46159 2.34315 8.07108L8 2.41422L13.6569 8.07106C14.0474 8.46159 14.6805 8.46159 15.0711 8.07106C15.4616 7.68054 15.4616 7.04738 15.0711 6.65686L8.70711 0.292892ZM8.99999 163L9 73.6923L7 73.6923L6.99999 163L8.99999 163ZM9 73.6923L9 1L7 1L7 73.6923L9 73.6923Z" fill="#D35538"/>
</svg>
