<svg width="264" height="120" viewBox="0 0 264 120" fill="none" xmlns="http://www.w3.org/2000/svg">
<path d="M4.94004 51.3219C4.39758 51.4256 4.04191 51.9495 4.14562 52.4919L5.83566 61.3318C5.93937 61.8743 6.4632 62.23 7.00565 62.1263C7.54812 62.0225 7.90379 61.4987 7.80008 60.9563L6.29781 53.0986L14.1555 51.5963C14.698 51.4926 15.0536 50.9688 14.9499 50.4263C14.8462 49.8839 14.3224 49.5282 13.7799 49.6319L4.94004 51.3219ZM262.546 51.4906C227.503 76.5374 181.22 88.7198 134.695 88.533C88.1698 88.3461 41.4975 75.7905 5.68956 51.4768L4.56608 53.1315C40.7586 77.7062 87.8364 90.3448 134.687 90.533C181.536 90.7211 228.253 78.4593 263.709 53.1177L262.546 51.4906Z" fill="#D35538"/>
</svg>
