<svg width="264" height="121" viewBox="0 0 264 121" fill="none" xmlns="http://www.w3.org/2000/svg">
<path d="M259.188 69.3668C259.73 69.2631 260.086 68.7392 259.982 68.1968L258.292 59.3569C258.189 58.8144 257.665 58.4588 257.122 58.5625C256.58 58.6662 256.224 59.19 256.328 59.7325L257.83 67.5901L249.972 69.0924C249.43 69.1961 249.074 69.7199 249.178 70.2624C249.282 70.8049 249.806 71.1605 250.348 71.0568L259.188 69.3668ZM1.5815 69.1981C36.6252 44.1513 82.9075 31.9689 129.433 32.1557C175.958 32.3426 222.63 44.8982 258.438 69.2119L259.562 67.5573C223.369 42.9825 176.291 30.3439 129.441 30.1558C82.5923 29.9676 35.8747 42.2294 0.418546 67.571L1.5815 69.1981Z" fill="#D35538"/>
</svg>
