<svg  fill="none" xmlns="http://www.w3.org/2000/svg">
<g clip-path="url(#clip0)">
<path d="M34.71 31.9501H34.54C33.8942 31.949 33.2547 32.0783 32.66 32.3301C32.5925 31.5115 32.3157 30.724 31.8561 30.0432C31.3964 29.3625 30.7695 28.8113 30.0354 28.4428C29.3013 28.0743 28.4848 27.9007 27.6643 27.9387C26.8438 27.9768 26.0468 28.2252 25.35 28.6601C24.7636 27.6547 23.8312 26.8971 22.727 26.5291C21.6228 26.161 20.4224 26.2076 19.35 26.6601V20.0701C19.35 18.7878 18.8406 17.558 17.9339 16.6512C17.0271 15.7445 15.7973 15.2351 14.515 15.2351C13.2327 15.2351 12.0029 15.7445 11.0962 16.6512C10.1894 17.558 9.68001 18.7878 9.68001 20.0701V37.8701L9.47001 37.5501L9.37001 37.4101C8.96382 36.9138 8.46116 36.5052 7.89244 36.2088C7.32372 35.9124 6.70078 35.7346 6.06132 35.686C5.42187 35.6374 4.77919 35.719 4.17221 35.926C3.56522 36.133 3.00656 36.4609 2.53001 36.8901C1.65221 37.6867 1.10319 38.7821 0.990369 39.9621C0.877551 41.142 1.20905 42.3216 1.92001 43.2701L12.63 59.8901V66.7801C12.63 67.1779 12.788 67.5595 13.0694 67.8408C13.3507 68.1221 13.7322 68.2801 14.13 68.2801H34C34.3978 68.2801 34.7794 68.1221 35.0607 67.8408C35.342 67.5595 35.5 67.1779 35.5 66.7801V59.9201L39.31 54.5601C39.4916 54.3063 39.5894 54.0022 39.59 53.6901V36.7801C39.5887 36.142 39.4612 35.5104 39.2149 34.9217C38.9686 34.333 38.6083 33.7989 38.1548 33.35C37.7012 32.9011 37.1634 32.5463 36.5722 32.306C35.981 32.0658 35.3481 31.9448 34.71 31.9501ZM36.54 53.2201L32.73 58.5801C32.5485 58.8339 32.4506 59.138 32.45 59.4501V65.2801H15.63V59.4501C15.6293 59.1627 15.546 58.8815 15.39 58.6401L4.39001 41.6401L4.31001 41.5301C4.10061 41.2639 3.97343 40.9424 3.94409 40.605C3.91475 40.2676 3.98452 39.929 4.14483 39.6306C4.30515 39.3323 4.54904 39.0872 4.84661 38.9255C5.14417 38.7638 5.48247 38.6924 5.82001 38.7201C6.27109 38.7521 6.69142 38.9605 6.99001 39.3001L9.90001 43.8401C10.068 44.1348 10.331 44.3639 10.6459 44.4899C10.9609 44.616 11.3093 44.6315 11.6342 44.534C11.9591 44.4365 12.2414 44.2318 12.435 43.9532C12.6286 43.6746 12.722 43.3386 12.7 43.0001V20.0701C12.7 19.5834 12.8933 19.1167 13.2375 18.7726C13.5816 18.4284 14.0483 18.2351 14.535 18.2351C15.0217 18.2351 15.4884 18.4284 15.8326 18.7726C16.1767 19.1167 16.37 19.5834 16.37 20.0701V38.2801C16.37 38.6779 16.528 39.0595 16.8094 39.3408C17.0907 39.6221 17.4722 39.7801 17.87 39.7801C18.2678 39.7801 18.6494 39.6221 18.9307 39.3408C19.212 39.0595 19.37 38.6779 19.37 38.2801V31.1101C19.37 30.6234 19.5633 30.1567 19.9075 29.8126C20.2516 29.4684 20.7183 29.2751 21.205 29.2751C21.6917 29.2751 22.1584 29.4684 22.5026 29.8126C22.8467 30.1567 23.04 30.6234 23.04 31.1101V38.2801C23.04 38.6779 23.198 39.0595 23.4794 39.3408C23.7607 39.6221 24.1422 39.7801 24.54 39.7801C24.9378 39.7801 25.3194 39.6221 25.6007 39.3408C25.882 39.0595 26.04 38.6779 26.04 38.2801V32.7601C26.04 32.2734 26.2333 31.8067 26.5775 31.4626C26.9216 31.1184 27.3883 30.9251 27.875 30.9251C28.3617 30.9251 28.8284 31.1184 29.1726 31.4626C29.5167 31.8067 29.71 32.2734 29.71 32.7601V40.5501C29.71 40.9479 29.8681 41.3295 30.1494 41.6108C30.4307 41.8921 30.8122 42.0501 31.21 42.0501C31.6078 42.0501 31.9894 41.8921 32.2707 41.6108C32.552 41.3295 32.71 40.9479 32.71 40.5501V38.8501C32.71 38.8501 32.71 38.8501 32.71 38.7801V36.7801C32.71 36.2948 32.9028 35.8293 33.246 35.4861C33.5892 35.1429 34.0547 34.9501 34.54 34.9501H34.71C35.1954 34.9501 35.6608 35.1429 36.004 35.4861C36.3472 35.8293 36.54 36.2948 36.54 36.7801V53.2201Z" fill="white"/>
<path d="M15.6899 10.7401V1.57007C15.6899 1.17224 15.5319 0.790714 15.2506 0.509409C14.9693 0.228104 14.5878 0.0700684 14.1899 0.0700684C13.7921 0.0700684 13.4106 0.228104 13.1293 0.509409C12.848 0.790714 12.6899 1.17224 12.6899 1.57007V10.7401C12.6899 11.1379 12.848 11.5194 13.1293 11.8007C13.4106 12.082 13.7921 12.2401 14.1899 12.2401C14.5878 12.2401 14.9693 12.082 15.2506 11.8007C15.5319 11.5194 15.6899 11.1379 15.6899 10.7401Z" fill="white"/>
<path d="M20.5401 14.0002L27.0001 7.56018C27.2651 7.27583 27.4093 6.89974 27.4025 6.51114C27.3956 6.12254 27.2382 5.75177 26.9634 5.47694C26.6885 5.20211 26.3178 5.04469 25.9292 5.03783C25.5406 5.03097 25.1645 5.17522 24.8801 5.44018L18.4001 11.9202C18.2392 12.055 18.1084 12.222 18.0161 12.4106C17.9238 12.5991 17.8721 12.8049 17.8643 13.0147C17.8565 13.2244 17.8929 13.4335 17.971 13.6283C18.0491 13.8232 18.1673 13.9994 18.3178 14.1457C18.4683 14.292 18.6479 14.4051 18.8449 14.4777C19.0418 14.5502 19.2519 14.5806 19.4613 14.5669C19.6708 14.5532 19.875 14.4957 20.0609 14.398C20.2467 14.3004 20.41 14.1649 20.5401 14.0002V14.0002Z" fill="white"/>
<path d="M7.84014 13.7001C8.12127 13.9865 8.50467 14.1495 8.906 14.1533C9.30733 14.1571 9.69371 14.0012 9.98014 13.7201C10.2666 13.439 10.4296 13.0556 10.4334 12.6542C10.4371 12.2529 10.2813 11.8665 10.0001 11.5801L3.52014 5.10009C3.23579 4.83513 2.8597 4.69089 2.4711 4.69774C2.08249 4.7046 1.71172 4.86202 1.4369 5.13685C1.16207 5.41168 1.00465 5.78245 0.997792 6.17105C0.990936 6.55965 1.13518 6.93574 1.40014 7.22009L7.84014 13.7001Z" fill="white"/>
</g>
<defs>
<clipPath id="clip0">
<rect x="0.96875" y="0.0700684" width="38.6213" height="68.21" fill="white"/>
</clipPath>
</defs>
</svg>
