<svg width="56" height="56" viewBox="0 0 56 56" fill="none" xmlns="http://www.w3.org/2000/svg">
<path d="M27.9159 0C12.5243 0 0 12.4942 0 27.8549C0 43.2156 12.5243 55.7098 27.9159 55.7098C43.3075 55.7098 55.8318 43.2156 55.8318 27.8549C55.8318 12.4942 43.3075 0 27.9159 0ZM27.9159 53.8544C13.5497 53.8544 1.8628 42.1906 1.8628 27.8549C1.8628 13.5192 13.5497 1.85537 27.9159 1.85537C42.2821 1.85537 53.969 13.5192 53.969 27.8549C53.969 42.1906 42.2821 53.8544 27.9159 53.8544Z" fill="white"/>
<path d="M43.2256 19.2485C43.4187 18.8918 43.5778 18.5178 43.7009 18.1314C43.7578 17.9522 43.759 17.76 43.7041 17.5801C43.6493 17.4002 43.5411 17.2412 43.3938 17.1239C43.2466 17.0067 43.0671 16.9368 42.8792 16.9234C42.6912 16.9101 42.5036 16.9539 42.3412 17.0492C41.4491 17.578 40.4834 17.972 39.4756 18.2183C38.2522 17.1165 36.6633 16.5057 35.0153 16.5037C34.12 16.5043 33.234 16.6854 32.4105 17.0361C31.587 17.3867 30.843 17.8996 30.2229 18.5441C29.6029 19.1887 29.1197 19.9515 28.8022 20.7868C28.4847 21.6222 28.3396 22.513 28.3754 23.4057C24.4601 22.9138 20.8848 20.9368 18.3912 17.8848C18.2957 17.7691 18.1736 17.6782 18.0353 17.6198C17.897 17.5613 17.7466 17.537 17.5969 17.5489C17.4472 17.5609 17.3026 17.6087 17.1754 17.6883C17.0482 17.768 16.9421 17.8771 16.8661 18.0064C16.2952 18.9843 15.9848 20.0919 15.9647 21.2235C15.9446 22.3552 16.2154 23.4731 16.7512 24.4706C16.6198 24.4927 16.4936 24.5387 16.3787 24.6061C16.2379 24.6957 16.122 24.8192 16.0417 24.9652C15.9614 25.1112 15.9192 25.2751 15.9191 25.4417C15.9191 27.4135 16.7982 29.2237 18.2154 30.4536L18.1544 30.5144C18.0474 30.6352 17.9738 30.7817 17.9409 30.9395C17.9079 31.0973 17.9167 31.2609 17.9664 31.4143C18.2619 32.3342 18.7553 33.1786 19.4121 33.8883C20.0689 34.5979 20.8731 35.1558 21.7686 35.5229C19.9295 36.4181 17.8713 36.7673 15.839 36.5287C15.6301 36.5075 15.42 36.556 15.2417 36.6666C15.0634 36.7773 14.9269 36.9439 14.8536 37.1402C14.7833 37.338 14.7819 37.5538 14.8499 37.7525C14.9178 37.9511 15.051 38.1211 15.2279 38.2347C17.9908 40.0041 21.205 40.9442 24.4879 40.943C35.2469 40.943 41.6779 32.2221 41.6779 23.7913L41.6761 23.5064C42.7188 22.6941 43.6246 21.7206 44.3589 20.6226C44.4701 20.4567 44.5248 20.2594 44.5149 20.0599C44.505 19.8605 44.4309 19.6696 44.3038 19.5154C44.1766 19.3613 44.0031 19.2521 43.8089 19.204C43.6147 19.1559 43.4102 19.1715 43.2256 19.2485V19.2485ZM40.1877 22.2973C40.0613 22.388 39.9598 22.5088 39.8922 22.6487C39.8247 22.7886 39.7934 22.9431 39.8012 23.0982C39.8116 23.3275 39.8168 23.5603 39.8168 23.7896C39.8168 31.3083 34.0839 39.0859 24.4897 39.0859C22.7785 39.0867 21.0794 38.8001 19.4636 38.2381C21.3988 37.8681 23.2168 37.04 24.7647 35.8234C24.9154 35.7048 25.0257 35.5427 25.0806 35.3592C25.1355 35.1757 25.1322 34.9798 25.0712 34.7983C25.0102 34.6167 24.8946 34.4584 24.74 34.3449C24.5854 34.2314 24.3995 34.1684 24.2076 34.1643C23.457 34.15 22.7202 33.9599 22.0568 33.6093C21.3933 33.2586 20.8217 32.7573 20.388 32.1457C20.8285 32.1161 21.2603 32.0432 21.6798 31.9303C21.8829 31.876 22.0615 31.7547 22.1866 31.5862C22.3117 31.4176 22.3758 31.2117 22.3686 31.002C22.3613 30.7924 22.283 30.5914 22.1466 30.4319C22.0101 30.2723 21.8235 30.1636 21.6171 30.1235C20.7694 29.9515 19.9844 29.5526 19.3462 28.9697C18.7081 28.3867 18.2408 27.6417 17.9943 26.8141C18.4574 26.9305 18.9326 26.9983 19.4079 27.0139C19.817 27.0122 20.1965 26.762 20.3236 26.3694C20.4507 25.9768 20.301 25.5442 19.9546 25.3149C19.1354 24.7703 18.5047 23.9866 18.1485 23.0709C17.7924 22.1553 17.7282 21.1522 17.9647 20.1988C20.9887 23.295 25.0721 25.1388 29.3991 25.3618C29.7055 25.3635 29.9736 25.2541 30.1599 25.03C30.3462 24.8059 30.4175 24.5088 30.3514 24.2239C30.1133 23.2007 30.2198 22.1277 30.6544 21.1709C31.089 20.2142 31.8275 19.427 32.7556 18.9313C33.6838 18.4356 34.7497 18.259 35.7886 18.4287C36.8274 18.5985 37.7812 19.1052 38.5024 19.8704C38.6105 19.9855 38.7462 20.0712 38.8966 20.1195C39.0471 20.1679 39.2074 20.1772 39.3625 20.1466C39.6497 20.0893 39.9335 20.0233 40.2138 19.9469C40.0874 20.0412 39.9561 20.1288 39.8203 20.2092C39.6398 20.3195 39.5023 20.488 39.4306 20.6867C39.3588 20.8855 39.357 21.1027 39.4256 21.3026C39.4941 21.5024 39.6288 21.6731 39.8075 21.7863C39.9863 21.8996 40.1983 21.9487 40.4088 21.9256L40.7256 21.8856C40.5511 22.029 40.3717 22.1663 40.1877 22.2973V22.2973Z" fill="white"/>
</svg>
