<svg width="56" height="56" viewBox="0 0 56 56" fill="none" xmlns="http://www.w3.org/2000/svg">
<path d="M34.0335 20.8225C32.8532 20.8225 31.9792 21.1196 31.295 21.4948C31.1854 21.1057 30.825 20.8208 30.4002 20.9059H25.2052C24.6916 20.8208 24.2756 21.236 24.434 21.7745V40.8842C24.2756 41.3706 24.6916 41.7876 25.2052 41.7528H30.4002C30.9138 41.7876 31.3299 41.3706 31.3299 40.8581L31.3281 29.3089C31.3264 29.3037 31.3072 28.7513 31.6571 28.3708C31.9374 28.0686 32.4197 27.9139 33.0865 27.9139C34.1972 27.9139 34.6916 28.3674 34.8762 29.3819V40.8581C34.6934 41.3706 35.1094 41.7876 35.623 41.7528H41.0983C41.6119 41.7876 42.0279 41.3706 41.8434 40.8581V28.9962C42.0262 22.9645 37.7209 20.8225 34.0335 20.8225V20.8225ZM40.1669 40.0156H36.5527V29.3819C36.5527 27.3302 35.2243 26.0586 33.0882 26.0586C31.88 26.0586 30.9399 26.413 30.2922 27.1113C29.3922 28.0842 29.4618 29.3176 29.6551 29.5921V40.0156H26.1349V22.6779H29.4705V23.2616C29.4692 23.4355 29.517 23.6062 29.6085 23.7542C29.7 23.9022 29.8315 24.0214 29.9879 24.0981C30.1443 24.1749 30.3192 24.2061 30.4925 24.1881C30.6658 24.1701 30.8305 24.1037 30.9677 23.9965L31.2115 23.8088C31.9165 23.2546 32.646 22.6796 34.0353 22.6796C35.4733 22.6796 40.1686 23.1365 40.1686 28.998V40.0156H40.1669Z" fill="white"/>
<path d="M19.2095 12.1609C17.2561 12.1609 15.6684 13.7453 15.6684 15.6945C15.6684 17.6437 17.2561 19.2281 19.2095 19.2281C21.1628 19.2281 22.7505 17.6437 22.7505 15.6945C22.7505 13.7453 21.1628 12.1609 19.2095 12.1609ZM19.2095 17.3727C18.2833 17.3727 17.5277 16.6187 17.5277 15.6945C17.5277 14.7703 18.2833 14.0163 19.2095 14.0163C20.1356 14.0163 20.8912 14.7703 20.8912 15.6945C20.8912 16.6187 20.1356 17.3727 19.2095 17.3727Z" fill="white"/>
<path d="M21.6955 20.821H16.5284C16.0149 20.821 15.5988 21.2362 15.7276 21.7748V40.8845C15.5988 41.3709 16.0149 41.7879 16.5284 41.7531H21.6955C22.209 41.7879 22.6251 41.3709 22.6251 40.8584V21.7487C22.6251 21.5027 22.5272 21.2667 22.3528 21.0928C22.1785 20.9188 21.942 20.821 21.6955 20.821ZM20.9503 40.0159H17.4581V22.6782H20.9503V40.0159Z" fill="white"/>
<path d="M27.9141 0C12.5208 0 0 12.4942 0 27.8549C0 43.2156 12.5208 55.7098 27.9141 55.7098C43.3074 55.7098 55.8282 43.2156 55.8282 27.8549C55.8282 12.4942 43.3074 0 27.9141 0ZM27.9141 53.8544C13.5479 53.8544 1.85931 42.1906 1.85931 27.8549C1.85931 13.5192 13.5479 1.85537 27.9141 1.85537C42.2803 1.85537 53.9689 13.5192 53.9689 27.8549C53.9689 42.1906 42.2803 53.8544 27.9141 53.8544Z" fill="white"/>
</svg>
