<svg width="56" height="56" viewBox="0 0 56 56" fill="none" xmlns="http://www.w3.org/2000/svg">
<path d="M27.9159 0C12.5243 0 0 12.4942 0 27.8549C0 43.2156 12.5243 55.7098 27.9159 55.7098C43.3075 55.7098 55.8318 43.2156 55.8318 27.8549C55.8318 12.4942 43.3075 0 27.9159 0ZM27.9159 53.8544C13.5497 53.8544 1.8628 42.1906 1.8628 27.8549C1.8628 13.5192 13.5497 1.85537 27.9159 1.85537C42.2821 1.85537 53.969 13.5192 53.969 27.8549C53.969 42.1906 42.2821 53.8544 27.9159 53.8544Z" fill="white"/>
<path d="M17.2105 14H39.7895C41.1714 14 42.4967 14.5867 43.4739 15.631C44.451 16.6754 45 18.0918 45 19.5687V36.275C45 37.7519 44.451 39.1683 43.4739 40.2127C42.4967 41.257 41.1714 41.8437 39.7895 41.8437H17.2105C15.8286 41.8437 14.5033 41.257 13.5261 40.2127C12.549 39.1683 12 37.7519 12 36.275V19.5687C12 18.0918 12.549 16.6754 13.5261 15.631C14.5033 14.5867 15.8286 14 17.2105 14V14ZM17.2105 15.8562C16.3629 15.8562 15.5848 16.1811 14.9822 16.7213L28.5 26.1027L42.0178 16.7213C41.3936 16.1614 40.6044 15.8551 39.7895 15.8562H17.2105ZM28.5 28.3154L13.9696 18.2322C13.8155 18.6586 13.7366 19.1117 13.7368 19.5687V36.275C13.7368 37.2596 14.1028 38.2039 14.7543 38.9001C15.4057 39.5963 16.2892 39.9875 17.2105 39.9875H39.7895C40.7108 39.9875 41.5943 39.5963 42.2457 38.9001C42.8972 38.2039 43.2632 37.2596 43.2632 36.275V19.5687C43.2632 19.0973 43.1815 18.6462 43.0304 18.2322L28.5 28.3135V28.3154Z" fill="white"/>
</svg>
