<svg enable-background="new 0 0 512 512" viewBox="0 0 512 512" xmlns="http://www.w3.org/2000/svg" fill="#fcc694" ><path d="m421.054 414.843c-4.142 0-7.5 3.358-7.5 7.5v70.514c0 2.283-1.858 4.141-4.141 4.141h-40.317v-147.697c0-4.142-3.358-7.5-7.5-7.5s-7.5 3.358-7.5 7.5v147.698h-81.185l23.543-25.9c2.572-2.83 3.785-6.861 3.244-10.787-.01-.076-.022-.152-.035-.228l-22.423-132.467 6.041-9.094c3.34 2.372 5.913 4.656 10.738 4.656 4.908 0 9.497-2.747 11.755-7.269v-.001l23.65-47.4 53.876 20.865c1.949.836 30.252 13.582 30.252 47.238v50.73c-.001 4.141 3.357 7.5 7.5 7.5 4.142 0 7.5-3.358 7.5-7.5v-50.73c0-44.344-37.969-60.463-39.585-61.128-.047-.02-.095-.039-.143-.057l-89.668-34.726v-21.03c14.242-11.076 24.117-27.495 26.596-46.227 7.101-.5 13.69-3.152 19.071-7.779 7.027-6.043 11.059-14.838 11.059-24.126 0-7.708-2.781-15.068-7.737-20.803v-27.783c-.001-51.254-41.699-92.953-92.953-92.953s-92.952 41.699-92.952 92.953v28.511c-5.009 5.677-7.733 12.665-7.733 20.074 0 9.291 4.03 18.085 11.059 24.129 5.377 4.625 11.962 7.274 19.061 7.775 2.499 19.083 12.662 36.114 28.117 47.339v19.92l-89.571 34.725c-.047.018-.094.037-.141.056-1.617.665-39.585 16.784-39.585 61.128v156.245c0 10.555 8.587 19.142 19.142 19.142h71.457c4.142 0 7.5-3.358 7.5-7.5s-3.358-7.5-7.5-7.5h-16.137v-147.696c0-4.142-3.358-7.5-7.5-7.5s-7.5 3.358-7.5 7.5v147.698h-40.319c-2.283 0-4.141-1.858-4.141-4.141v-156.247c0-33.769 28.493-46.486 30.243-47.234l53.834-20.87 23.652 47.402c2.263 4.533 6.858 7.27 11.756 7.27 4.801 0 7.349-2.249 10.738-4.656l6.041 9.094-22.421 132.468c-.013.075-.024.15-.035.226-.542 3.924.671 7.957 3.244 10.789l23.543 25.9h-29.995c-4.142 0-7.5 3.358-7.5 7.5s3.358 7.5 7.5 7.5h200.365c10.555 0 19.142-8.588 19.142-19.142v-70.514c-.002-4.143-3.36-7.501-7.502-7.501zm-105.679-151.774-22.049 44.19c-.548-.389-12.233-8.691-26.517-18.834 6.198-7.651-1.053 1.299 27.235-33.617zm-44.332 46.764-5.718 8.607h-18.703l-5.718-8.607 15.07-10.703zm-43.3-66.712v-14.036c9.112 3.673 18.85 5.376 28.36 5.376 9.833 0 19.476-2.096 28.052-5.846v14.567l-28.181 34.785zm113.138-101.582c-.001 4.913-2.129 9.562-5.839 12.753-2.453 2.11-5.416 3.459-8.661 3.987v-33.477c8.62 1.4 14.5 8.55 14.5 16.737zm-156.874 16.74c-8.718-1.415-14.5-8.623-14.5-16.741 0-8.018 6.647-14.544 14.5-16.359zm.403-48.383c-2.389.274-5.127.921-7.168 1.615v-18.558c0-42.983 34.968-77.952 77.951-77.952s77.951 34.969 77.951 77.952v18.043c-2.18-.663-4.441-1.101-6.762-1.307 0-7.237.063-5.841-23.612-31.294-4.354-4.678-11.556-5.658-17.037-2.077-26.13 17.069-58.005 25.644-87.415 23.532-6.451-.483-12.327 3.766-13.908 10.046zm14.598 54.288v-46.792-2.465c32.375 1.896 66.318-7.722 93.739-25.283 10.858 11.658 16.738 17.773 18.634 20.099v54.44c0 30.447-24.826 55.276-55.277 55.276-34.194.001-57.096-26.525-57.096-55.275zm19.615 143.075-22.049-44.19 21.293-8.247 27.241 33.625c-13.853 9.837-25.228 17.919-26.485 18.812zm8.605 154.443 21.709-128.263h14.071l21.709 128.263-28.744 31.623z"/></svg>
