<svg width="315" height="127" viewBox="0 0 315 127" fill="none" xmlns="http://www.w3.org/2000/svg">
<path fill-rule="evenodd" clip-rule="evenodd" d="M50.4117 85.0254C25.2981 62.6768 7.71286 33.1065 0.0674744 0.369568L1.64975 3.8147e-05C9.21887 32.4104 26.6288 61.6858 51.4919 83.8116C76.3551 105.937 107.454 119.83 140.524 123.585C173.594 127.339 207.016 120.772 236.206 104.783C263.412 89.8805 285.701 67.4745 300.46 40.2988L287.517 32.5536L314.624 17.0811L313.802 48.2825L301.856 41.1339C286.948 68.5565 264.447 91.1663 236.987 106.208C207.502 122.358 173.744 128.991 140.341 125.199C106.938 121.407 75.5253 107.374 50.4117 85.0254Z" fill="#D35538"/>
</svg>
