<svg width="314" height="128" viewBox="0 0 314 128" fill="none" xmlns="http://www.w3.org/2000/svg">
<path fill-rule="evenodd" clip-rule="evenodd" d="M262.95 42.0137C288.064 64.3624 305.649 93.9327 313.295 126.67L311.712 127.039C304.143 94.6287 286.733 65.3533 261.87 43.2276C237.007 21.1018 205.908 7.20911 172.838 3.4546C139.768 -0.299901 106.346 6.26764 77.1557 22.2566C49.814 37.233 27.4389 59.7882 12.6818 87.1471L26.8663 95.6352L1.4215 108.326L0.5784 79.9043L11.2862 86.3119C26.1922 58.7062 48.7793 35.9471 76.3751 20.8315C105.86 4.68149 139.618 -1.95221 173.021 1.84011C206.424 5.63244 237.837 19.6651 262.95 42.0137Z" fill="#D35538"/>
</svg>
